<svg version="1.1" viewBox="0 0 1024 1024" xmlns="http://www.w3.org/2000/svg" xmlns:svg="http://www.w3.org/2000/svg">
  <path d="M1024 703.67c0 12.244 0 24.466-.092 36.688-.061 10.307-.178 20.614-.446 30.9a449.076 449.076 0 0 1-5.921 67.252 226.615 226.615 0 0 1-21.08 63.959 215.044 215.044 0 0 1-94.008 94.011 226.737 226.737 0 0 1-63.91 21.06 445.753 445.753 0 0 1-67.273 5.922 1446.64 1446.64 0 0 1-30.897.467c-12.244.071-24.465.071-36.686.071H320.313c-12.221 0-24.442 0-36.686-.061-10.3-.04-20.6-.186-30.898-.445a448.414 448.414 0 0 1-67.272-5.944c-22.238-3.784-43.786-10.908-63.91-21.06A215.07 215.07 0 0 1 27.54 902.5a226.988 226.988 0 0 1-21.081-63.98 448.824 448.824 0 0 1-5.921-67.231 1436.18 1436.18 0 0 1-.446-30.922C0 728.123 0 715.924 0 703.68V320.33c0-12.243 0-24.487.092-36.731a1404.8 1404.8 0 0 1 .446-30.877 448.655 448.655 0 0 1 5.92-67.232 226.97 226.97 0 0 1 21.082-63.98 215.045 215.045 0 0 1 94.007-94.013 226.965 226.965 0 0 1 63.888-21.06 451.45 451.45 0 0 1 67.272-5.92C263.014.25 273.32.116 283.605.071 295.848 0 308.092 0 320.29 0h383.374c12.243 0 24.487 0 36.708.072 10.3.04 20.6.186 30.898.445 22.528.29 45.01 2.27 67.25 5.922a227.09 227.09 0 0 1 63.932 21.06 215 215 0 0 1 94.03 94.011 226.912 226.912 0 0 1 21.058 63.959 448.942 448.942 0 0 1 5.921 67.252c.268 10.308.401 20.615.446 30.9.092 12.244.092 24.466.092 36.687Z"/>
  <path d="m211.45 212 227.325 331.55L208.05 812h76.425L472.75 592.9 623 812h192.7L579.85 468 799.9 212h-76.45L545.9 418.7 404.35 212Zm91.2 48.15h76.525l345.275 503.7H648Z" fill="#fff"/>
</svg>
